<?xml version="1.0" standalone="no"?><!DOCTYPE svg PUBLIC "-//W3C//DTD SVG 1.1//EN" "http://www.w3.org/Graphics/SVG/1.1/DTD/svg11.dtd"><svg t="1576148329530" class="icon" viewBox="0 0 1024 1024" version="1.1" xmlns="http://www.w3.org/2000/svg" p-id="2809" width="48" height="48" xmlns:xlink="http://www.w3.org/1999/xlink"><defs><style type="text/css"></style></defs><path d="M921.634133 167.662933c0-18.8416-12.151467-37.546667-30.3104-37.546666h-36.4544s-78.848 0-157.696-37.6832C612.113067 67.3792 557.499733 23.483733 557.499733 23.483733L533.1968 4.778667a50.312533 50.312533 0 0 0-42.461867 0l-18.2272 18.773333s-54.613333 37.614933-139.537066 75.229867c-78.916267 31.402667-151.688533 37.546667-157.764267 37.546666H132.744533c-18.158933 0-30.3104 18.8416-30.3104 37.6832v385.4336c0 100.283733 54.613333 206.848 145.6128 303.991467 84.992 87.722667 188.142933 137.898667 263.9872 137.898667 72.840533 0 175.991467-50.176 263.9872-137.898667C873.096533 769.365333 921.634133 662.801067 921.634133 559.377067V167.662933zM718.336 405.845333L493.806933 637.7472a45.602133 45.602133 0 0 1-30.3104 12.4928 45.602133 45.602133 0 0 1-30.378666-12.4928l-109.226667-119.125333a48.674133 48.674133 0 0 1-12.0832-31.3344c0-12.4928 6.075733-25.053867 12.0832-31.3344 18.2272-18.773333 42.530133-18.773333 60.757333 0l78.848 81.5104 194.1504-200.567467c18.2272-18.8416 42.530133-18.8416 60.757334 0a48.674133 48.674133 0 0 1 12.0832 31.3344c0 18.773333 0 31.3344-12.151467 37.546667z" fill="#FFC300" p-id="2810"></path></svg>