<?xml version="1.0" standalone="no"?><!DOCTYPE svg PUBLIC "-//W3C//DTD SVG 1.1//EN" "http://www.w3.org/Graphics/SVG/1.1/DTD/svg11.dtd"><svg t="1572933412546" class="icon" viewBox="0 0 1024 1024" version="1.1" xmlns="http://www.w3.org/2000/svg" p-id="2044" xmlns:xlink="http://www.w3.org/1999/xlink" width="128" height="128"><defs><style type="text/css"></style></defs><path d="M1021 554.915V469.09c0-17.333-12.229-32.254-29.222-35.657l-110.877-22.176a36.496 36.496 0 0 1-27.109-23.428 348.504 348.504 0 0 0-12.308-29.675 36.542 36.542 0 0 1 2.594-35.769l62.728-94.085c9.61-14.418 7.709-33.623-4.543-45.877l-60.686-60.68c-12.253-12.258-31.454-14.16-45.877-4.545l-94.084 62.723a36.529 36.529 0 0 1-35.77 2.594 345.836 345.836 0 0 0-29.684-12.296 36.495 36.495 0 0 1-23.429-27.105l-22.18-110.892C587.154 15.234 572.239 3.005 554.915 3H469.09c-17.333 0-32.254 12.229-35.657 29.221l-22.176 110.877a36.497 36.497 0 0 1-23.428 27.11 350.92 350.92 0 0 0-29.675 12.306 36.527 36.527 0 0 1-35.769-2.594L228.3 117.197c-14.418-9.615-33.623-7.713-45.877 4.545l-60.68 60.68c-12.258 12.254-14.16 31.459-4.545 45.877l62.723 94.085a36.524 36.524 0 0 1 2.594 35.769 345.724 345.724 0 0 0-12.296 29.685 36.49 36.49 0 0 1-27.105 23.428L32.221 433.447C15.234 436.845 3.005 451.76 3 469.089v85.81c0 17.329 12.229 32.254 29.221 35.653l110.877 22.18a36.5 36.5 0 0 1 27.11 23.429 349.874 349.874 0 0 0 12.306 29.684 36.524 36.524 0 0 1-2.594 35.769l-62.723 94.085c-9.615 14.423-7.713 33.625 4.545 45.877l60.68 60.686c12.254 12.253 31.459 14.154 45.877 4.544l94.085-62.728a36.542 36.542 0 0 1 35.769-2.594 343.82 343.82 0 0 0 29.685 12.297 36.49 36.49 0 0 1 23.428 27.105l22.181 110.882c3.393 16.992 18.309 29.226 35.642 29.231h85.81c17.329 0 32.254-12.229 35.653-29.222l22.18-110.877a36.502 36.502 0 0 1 23.429-27.11 347.136 347.136 0 0 0 29.684-12.306 36.544 36.544 0 0 1 35.77 2.594l94.084 62.728c14.423 9.61 33.625 7.709 45.877-4.544l60.686-60.686c12.252-12.253 14.154-31.454 4.543-45.877l-62.728-94.085a36.542 36.542 0 0 1-2.594-35.769 343.931 343.931 0 0 0 12.297-29.684 36.493 36.493 0 0 1 27.105-23.429l110.882-22.18c16.994-3.393 29.228-18.308 29.233-35.637z m-354.754 111.34c-73.591 73.587-188.916 84.943-275.443 27.125-86.533-57.823-120.167-168.715-80.341-264.863 39.827-96.147 142.025-150.772 244.096-130.468 102.071 20.304 175.585 109.882 175.585 213.953a216.713 216.713 0 0 1-63.898 154.243v0.01z m0 0" p-id="2045"></path></svg>