<?xml version="1.0" standalone="no"?><!DOCTYPE svg PUBLIC "-//W3C//DTD SVG 1.1//EN" "http://www.w3.org/Graphics/SVG/1.1/DTD/svg11.dtd"><svg t="1573644436641" class="icon" viewBox="0 0 1024 1024" version="1.1" xmlns="http://www.w3.org/2000/svg" p-id="1120" xmlns:xlink="http://www.w3.org/1999/xlink" width="128" height="128"><defs><style type="text/css"></style></defs><path d="M505.933 537.933c-135.475 0-245.658-110.208-245.658-245.658S370.483 46.618 505.933 46.618 751.59 156.826 751.59 292.275 641.408 537.933 505.933 537.933zM746.7 967.885c-0.204 0-2.534-0.026-2.738-0.026H243.226c-75.264-4.198-119.45-53.376-122.317-134.937-0.717-19.943 9.037-51.456 14.233-62.08 70.375-143.565 213.35-232.73 373.146-232.73 168.166 0 319.104 95.59 375.578 237.875 21.99 55.424 21.478 100.71-1.562 134.605-37.043 54.528-119.45 57.293-135.603 57.293z" p-id="1121"></path></svg>